<svg xmlns="http://www.w3.org/2000/svg" xmlns:xlink="http://www.w3.org/1999/xlink" width="1080" zoomAndPan="magnify" viewBox="0 0 810 809.999993" height="1080" preserveAspectRatio="xMidYMid meet" version="1.0"><defs><clipPath id="af868d0d16"><path d="M 24 96 L 784 96 L 784 738.515625 L 24 738.515625 Z M 24 96 " clip-rule="nonzero"/></clipPath><clipPath id="91acbcf2e7"><path d="M 97 198 L 409.808594 198 L 409.808594 540.675781 L 97 540.675781 Z M 97 198 " clip-rule="nonzero"/></clipPath><clipPath id="7d3b9ebe32"><path d="M 96.101562 196.03125 L 310.515625 196.03125 C 310.816406 196.191406 311.140625 196.3125 311.503906 196.386719 C 312.125 196.515625 313.0625 198.179688 314.695312 198.515625 C 315.449219 198.667969 330.066406 214.480469 331.996094 215.296875 L 332.71875 215.527344 C 333.3125 218.105469 334.898438 218.132812 336.082031 218.753906 C 337.457031 219.472656 341.898438 225.648438 344.492188 226.183594 C 345.496094 226.390625 349.425781 232.054688 351.941406 232.566406 C 352.796875 232.742188 354.113281 235.332031 356.199219 235.761719 C 357.230469 235.972656 363.140625 243.601562 365.570312 244.226562 C 367.082031 244.617188 368.613281 248.019531 371.09375 248.53125 L 373.246094 250.980469 C 374.039062 253.527344 375.921875 253.125 377.34375 254.6875 L 383.582031 260.902344 C 381.542969 263.5 383.121094 264.851562 383.953125 267.136719 C 384.367188 268.273438 388.242188 272.070312 389.332031 273.0625 C 390.535156 274.152344 390.167969 274.859375 391.175781 275.96875 C 391.355469 276.167969 391.257812 277.023438 392.960938 278.726562 L 394.703125 280.175781 C 395.515625 280.988281 395.417969 282.054688 397.632812 282.566406 C 398.164062 284.882812 399.140625 284.167969 399.914062 286.292969 C 400.332031 287.429688 403.429688 291.148438 405.996094 291.179688 C 407.265625 291.195312 408.558594 291.273438 409.78125 291.289062 L 409.78125 540.644531 L 96.101562 540.644531 Z M 325.253906 196.03125 L 409.78125 196.03125 L 409.78125 276.402344 C 408.953125 275.660156 408.167969 274.929688 407.882812 274.019531 C 407.316406 272.195312 405.222656 271.472656 404.691406 269.761719 C 404.125 267.9375 402.035156 267.222656 401.5 265.503906 C 401.03125 264.003906 397.472656 260.796875 396.199219 259.523438 C 394.8125 258.136719 394.820312 259.207031 393.007812 257.394531 L 389.359375 253.808594 C 387.402344 252.34375 383.769531 247.238281 381.371094 246.6875 C 380.773438 244.113281 379.203125 244.082031 378.007812 243.460938 C 376.726562 242.796875 375.171875 239.707031 372.789062 239.222656 C 371.761719 239.015625 366.824219 232.292969 364.277344 231.773438 C 363.597656 231.636719 361.261719 228.488281 359.933594 227.847656 C 359.296875 227.539062 359.09375 225.855469 356.828125 225.390625 L 353.546875 222.527344 C 352.910156 222.21875 352.707031 220.527344 350.445312 220.070312 C 349.625 219.902344 348.207031 217.289062 346.1875 216.875 C 345.527344 216.742188 335.070312 205.277344 333.328125 204.4375 L 331.894531 202.730469 C 331.039062 202.089844 328.121094 198.972656 325.253906 196.03125 Z M 323.042969 223.125 C 323.074219 224.425781 323.566406 225.53125 324.574219 226.371094 L 363.921875 257.863281 C 368.324219 259.722656 371.964844 253.855469 368.234375 250.738281 L 328.886719 219.25 C 326.242188 218.132812 323.125 219.925781 323.042969 223.125 Z M 323.042969 223.125 " clip-rule="evenodd"/></clipPath><clipPath id="32b14ab374"><path d="M 413 198 L 725.960938 198 L 725.960938 540 L 413 540 Z M 413 198 " clip-rule="nonzero"/></clipPath><clipPath id="e08d72bc4e"><path d="M 410.464844 196.03125 L 497.035156 196.03125 C 495.996094 196.613281 495.234375 197.625 494.964844 198.800781 C 493.105469 199.230469 488.007812 204.320312 487.546875 206.113281 C 487.238281 207.3125 484.308594 209.132812 483.570312 210.660156 C 483.261719 211.300781 481.578125 211.5 481.113281 213.765625 L 473.542969 221.179688 C 471.859375 221.613281 468.695312 224.828125 468.34375 226.535156 C 468.121094 227.628906 465.496094 227.578125 464.417969 229.816406 L 456.515625 237.140625 C 454.882812 237.5625 452.722656 239.773438 452.382812 241.433594 L 449.066406 244.589844 C 447.648438 244.957031 444.878906 247.855469 443.8125 249.027344 L 442.28125 250.613281 C 440.488281 251.957031 436.707031 256.898438 435.035156 257.417969 C 433.53125 257.882812 430.328125 261.445312 429.054688 262.714844 C 427.640625 264.132812 424.015625 267.3125 423.652344 269.101562 C 423.523438 269.722656 421.859375 270.660156 421.523438 272.292969 C 421.320312 273.28125 417.746094 275.277344 417.265625 277.613281 L 416.203125 279.742188 C 416.074219 280.363281 414.410156 281.300781 414.074219 282.933594 C 413.839844 284.070312 411.0625 284.195312 411.910156 289.742188 C 412.605469 294.316406 419.394531 294.386719 420.207031 289.839844 C 422.039062 287.914062 421.628906 287.984375 422.855469 285.960938 L 423.921875 283.835938 C 425.144531 281.820312 423.4375 283.628906 425.566406 281.289062 C 426.90625 279.816406 429.355469 278.113281 429.765625 276.117188 C 429.894531 275.496094 431.558594 274.558594 431.894531 272.921875 L 440.324219 264.492188 C 441.941406 264.160156 443.628906 262.273438 444.71875 261.070312 L 467.132812 238.90625 C 468.847656 238.464844 471.957031 234.90625 473.3125 233.550781 L 478.835938 228.265625 C 480.363281 227.871094 481.539062 226.628906 481.890625 225.105469 C 483.601562 224.707031 485.808594 222.507812 486.164062 220.78125 C 486.382812 219.714844 492.019531 215.929688 492.546875 213.332031 C 492.71875 212.492188 495.335938 211.050781 495.742188 209.074219 L 498.191406 206.925781 C 499.789062 206.429688 502.761719 203.035156 504.171875 201.625 L 507.945312 197.851562 C 508.871094 197.183594 509.96875 196.851562 510.953125 196.03125 L 725.949219 196.03125 L 725.949219 540.644531 L 410.464844 540.644531 Z M 410.464844 196.03125 " clip-rule="evenodd"/></clipPath><clipPath id="22f0ca6c09"><path d="M 274 167.3125 L 408 167.3125 L 408 289 L 274 289 Z M 274 167.3125 " clip-rule="nonzero"/></clipPath><clipPath id="b4eb556dbf"><path d="M 288.4375 167.316406 L 409.402344 167.316406 L 409.402344 276.402344 C 408.570312 275.660156 407.785156 274.929688 407.503906 274.019531 C 406.9375 272.195312 404.84375 271.472656 404.308594 269.761719 C 403.742188 267.9375 401.652344 267.222656 401.117188 265.503906 C 400.652344 264.003906 397.09375 260.796875 395.820312 259.523438 C 394.429688 258.136719 394.4375 259.207031 392.625 257.394531 L 388.976562 253.808594 C 387.019531 252.34375 383.386719 247.238281 380.988281 246.6875 C 380.394531 244.113281 378.820312 244.082031 377.628906 243.460938 C 376.347656 242.796875 374.792969 239.707031 372.410156 239.222656 C 371.378906 239.015625 366.445312 232.292969 363.894531 231.773438 C 363.21875 231.636719 360.882812 228.488281 359.550781 227.847656 C 358.914062 227.539062 358.710938 225.855469 356.445312 225.390625 L 353.167969 222.527344 C 352.53125 222.21875 352.324219 220.527344 350.0625 220.070312 C 349.246094 219.902344 347.824219 217.289062 345.804688 216.875 C 345.144531 216.742188 334.691406 205.277344 332.949219 204.4375 L 331.511719 202.730469 C 329.867188 201.5 320.609375 191.128906 318.738281 190.441406 L 316.011719 189.210938 C 315.121094 189.027344 313.832031 186.441406 311.753906 186.015625 L 298 172.265625 C 297.253906 168.617188 294.078125 169.332031 293.203125 168.675781 C 291.644531 167.507812 290 168.316406 288.785156 167.496094 Z M 403.855469 290.679688 L 272.6875 290.679688 L 272.6875 168.195312 C 272.921875 170.191406 274.589844 171.96875 276.855469 171.996094 L 277.988281 171.996094 C 279.203125 172.605469 279.898438 173.75 281.328125 174.039062 C 282.078125 174.195312 282.496094 175.167969 284.304688 175.191406 C 285.101562 175.199219 286.039062 176.234375 287.496094 176.253906 L 290.207031 177.289062 C 291.074219 178.792969 292.832031 179.746094 293.230469 180.144531 L 294.679688 181.890625 C 296.40625 183.621094 303.621094 191.382812 305.203125 191.960938 L 307.449219 193.597656 C 308.5625 194.710938 309.46875 196.046875 311.121094 196.386719 C 311.742188 196.515625 312.679688 198.179688 314.316406 198.515625 C 315.066406 198.667969 329.6875 214.480469 331.617188 215.296875 L 332.339844 215.527344 C 332.933594 218.105469 334.515625 218.132812 335.699219 218.753906 C 337.074219 219.472656 341.519531 225.648438 344.109375 226.183594 C 345.117188 226.390625 349.042969 232.054688 351.558594 232.566406 C 352.414062 232.742188 353.730469 235.332031 355.816406 235.761719 C 356.851562 235.972656 362.757812 243.601562 365.191406 244.226562 C 366.699219 244.617188 368.234375 248.019531 370.714844 248.53125 L 372.863281 250.980469 C 373.65625 253.527344 375.542969 253.125 376.960938 254.6875 L 383.203125 260.902344 C 381.160156 263.5 382.738281 264.851562 383.570312 267.136719 C 383.988281 268.273438 387.863281 272.070312 388.953125 273.0625 C 390.152344 274.152344 389.789062 274.859375 390.792969 275.96875 C 390.976562 276.167969 390.875 277.023438 392.578125 278.726562 L 394.324219 280.175781 C 395.136719 280.988281 395.035156 282.054688 397.25 282.566406 C 397.785156 284.882812 398.757812 284.167969 399.535156 286.292969 C 399.855469 287.175781 401.800781 289.617188 403.855469 290.679688 Z M 322.660156 223.125 C 322.695312 224.425781 323.1875 225.53125 324.191406 226.371094 L 363.539062 257.863281 C 367.941406 259.722656 371.582031 253.855469 367.851562 250.738281 L 328.507812 219.25 C 325.859375 218.132812 322.742188 219.925781 322.660156 223.125 Z M 322.660156 223.125 " clip-rule="evenodd"/></clipPath></defs><g clip-path="url(#af868d0d16)"><path fill="#545454" d="M 370.414062 712.292969 C 353.367188 697.945312 303.890625 656.472656 260.453125 620.148438 C 174.507812 548.253906 144.558594 521.824219 119.234375 495.539062 C 69.890625 444.320312 40.429688 393.738281 28.371094 339.53125 C 23.988281 319.773438 23.621094 270.003906 27.738281 249.726562 C 37.683594 200.53125 61.863281 161.058594 99.320312 132.808594 C 134.09375 106.570312 170.65625 95.460938 216.914062 97.058594 C 251.699219 98.273438 272.953125 103.492188 302.519531 118.121094 C 334.976562 134.183594 372.035156 165.761719 400.242188 201.375 L 402.988281 204.835938 L 412.492188 193.242188 C 453.597656 143.085938 502.292969 111.050781 554.171875 100.03125 C 571.839844 96.289062 614.761719 96.289062 632.398438 100.03125 C 669.503906 107.929688 698.253906 123.710938 725.515625 151.117188 C 747.878906 173.585938 761.945312 195.902344 772.261719 225.261719 C 784.363281 259.679688 786.917969 302.410156 779.140625 340.242188 C 771.199219 378.890625 750.769531 421.175781 722.417969 457.664062 C 694.449219 493.675781 665.402344 521.289062 585.167969 588.15625 C 491.324219 666.351562 467.738281 686.15625 436.59375 712.929688 C 420.226562 726.980469 405.613281 738.457031 404.125 738.425781 C 402.632812 738.398438 387.460938 726.625 370.414062 712.292969 M 424.742188 686.304688 C 453.984375 661.25 502.527344 620.546875 551.21875 580.246094 C 646.257812 501.589844 677.546875 471.726562 706.933594 431.707031 C 731.183594 398.691406 747.730469 360.238281 753.472656 323.617188 C 755.820312 308.589844 755.417969 277.011719 752.6875 261.5 C 739.804688 188.539062 686.035156 135.308594 616.015625 126.195312 C 551.542969 117.808594 492.269531 144.109375 439.8125 204.347656 C 427.164062 218.871094 406.945312 244.933594 405.511719 248.558594 C 404.183594 251.914062 402.457031 250.507812 394.648438 239.683594 C 338.503906 161.855469 278.785156 124.628906 210.269531 124.730469 C 165.0625 124.792969 128.621094 139.832031 98.714844 170.773438 C 67.175781 203.417969 52.339844 242.359375 52.339844 292.558594 C 52.339844 348.597656 73.816406 400.496094 119.304688 454.410156 C 145.105469 484.996094 177.636719 514.707031 269.308594 591.5 C 296.511719 614.277344 337.558594 648.679688 360.539062 667.949219 C 383.503906 687.222656 402.972656 702.988281 403.785156 702.988281 C 404.613281 702.988281 414.027344 695.476562 424.742188 686.304688 Z M 424.742188 686.304688 " fill-opacity="1" fill-rule="nonzero"/></g><g clip-path="url(#91acbcf2e7)"><g clip-path="url(#7d3b9ebe32)"><path fill="#545454" d="M 292.1875 225.898438 C 270.46875 216.941406 247.792969 210.230469 224.488281 205.109375 C 201.484375 200.320312 177.863281 195.839844 153.269531 199.347656 C 141.136719 200.949219 128.992188 204.46875 118.460938 212.148438 C 107.917969 219.1875 99.621094 231.332031 98.019531 244.449219 C 96.101562 257.554688 98.976562 270.359375 103.769531 281.546875 C 108.5625 293.0625 114.628906 303.289062 121.652344 313.203125 C 149.75 350.625 185.203125 380.367188 222.242188 407.546875 C 219.050781 425.144531 216.820312 443.054688 217.449219 461.28125 C 218.40625 480.476562 222.242188 501.261719 235.976562 517.257812 C 242.6875 525.238281 251.625 530.691406 260.882812 534.523438 C 265.675781 536.441406 269.824219 538.042969 275.261719 539 C 280.683594 540.273438 285.792969 540.273438 290.898438 539.644531 C 311.65625 536.753906 328.265625 524.925781 342.644531 512.136719 C 370.429688 485.585938 390.542969 451.367188 400.757812 414.585938 C 403.316406 405.316406 404.90625 396.046875 405.863281 386.449219 C 406.507812 376.847656 406.824219 367.578125 407.152344 358.308594 L 409.382812 302.015625 L 404.277344 358.308594 C 403.316406 367.578125 402.988281 377.175781 401.714844 386.449219 C 400.441406 395.71875 398.210938 404.671875 395.335938 413.628906 C 383.832031 448.804688 363.71875 481.433594 336.25 506.054688 C 322.515625 517.886719 306.550781 528.128906 289.625 530.046875 C 285.476562 530.359375 281.328125 530.359375 277.492188 529.402344 C 273.660156 528.445312 268.867188 526.839844 265.03125 525.238281 C 257.050781 521.734375 249.710938 516.929688 244.273438 510.53125 C 233.101562 497.414062 229.265625 479.191406 228.953125 461.28125 C 228.308594 443.054688 231.183594 424.828125 234.703125 406.589844 L 235.332031 402.757812 L 232.140625 400.523438 C 195.417969 372.371094 158.378906 343.273438 130.910156 306.492188 C 124.199219 297.210938 118.132812 287.625 113.984375 277.382812 C 109.835938 267.152344 107.273438 256.28125 108.878906 246.039062 C 110.152344 235.8125 116.21875 226.855469 124.84375 220.777344 C 133.46875 214.710938 144.328125 211.191406 155.1875 209.273438 C 177.21875 205.425781 200.523438 208.945312 223.199219 213.109375 C 245.875 217.257812 268.238281 223.664062 289.941406 231.648438 C 333.375 247.640625 374.890625 270.671875 409.699219 301.6875 C 393.417969 285.066406 374.578125 270.671875 354.777344 258.199219 C 334.976562 245.726562 314.21875 234.851562 292.1875 225.898438 Z M 292.1875 225.898438 Z M 292.1875 225.898438 " fill-opacity="1" fill-rule="nonzero"/></g></g><g clip-path="url(#32b14ab374)"><g clip-path="url(#e08d72bc4e)"><path fill="#545454" d="M 724.964844 244.449219 C 723.375 231.332031 715.0625 219.1875 704.535156 212.148438 C 693.992188 204.796875 681.859375 201.277344 669.726562 199.675781 C 645.132812 196.15625 621.5 200.632812 598.511719 205.425781 C 575.519531 210.230469 552.84375 217.257812 530.8125 226.210938 C 509.09375 235.167969 488.007812 246.039062 468.21875 258.515625 C 448.421875 270.988281 429.578125 285.378906 413.285156 302.015625 C 448.421875 270.988281 489.609375 247.96875 533.042969 231.976562 C 554.761719 223.980469 577.109375 217.585938 599.78125 213.421875 C 622.460938 209.273438 645.765625 205.753906 667.808594 209.589844 C 678.667969 211.503906 689.527344 215.023438 698.140625 221.105469 C 706.765625 227.171875 712.832031 236.125 714.105469 246.367188 C 715.394531 256.597656 713.148438 267.46875 709 277.710938 C 704.847656 287.941406 698.785156 297.539062 692.074219 306.808594 C 664.605469 343.589844 627.882812 372.699219 590.527344 400.195312 L 587.335938 402.441406 L 587.964844 406.273438 C 591.484375 424.5 594.03125 442.738281 593.71875 460.964844 C 593.074219 478.875 589.566406 497.414062 578.394531 510.21875 C 572.957031 516.613281 565.621094 521.40625 557.636719 524.925781 C 553.800781 526.527344 549.011719 528.128906 545.175781 529.085938 C 541.34375 530.046875 537.191406 530.046875 533.042969 529.71875 C 516.121094 527.800781 499.824219 517.570312 486.417969 505.742188 C 458.949219 481.433594 438.835938 448.492188 427.332031 413.628906 C 424.457031 404.671875 422.226562 395.71875 420.953125 386.449219 C 419.679688 377.175781 419.351562 367.894531 418.394531 358.308594 L 413.285156 301.6875 L 415.515625 357.980469 C 415.84375 367.25 416.160156 376.847656 416.804688 386.132812 C 417.761719 395.71875 419.351562 405 421.910156 414.269531 C 432.125 451.050781 452.242188 484.957031 480.023438 511.820312 C 494.085938 524.609375 511.011719 536.753906 531.769531 539.316406 C 536.878906 539.960938 541.984375 539.960938 547.40625 538.671875 C 552.515625 537.398438 556.992188 536.125 561.785156 534.195312 C 571.042969 530.359375 579.984375 524.609375 586.691406 516.929688 C 600.425781 500.933594 604.574219 480.148438 605.21875 460.964844 C 605.847656 442.738281 603.617188 424.828125 600.425781 407.234375 C 637.464844 380.367188 673.230469 350.625 701.015625 312.886719 C 708.039062 303.289062 714.433594 292.734375 718.898438 281.230469 C 723.691406 270.03125 726.882812 257.554688 724.964844 244.449219 Z M 724.964844 244.449219 Z M 724.964844 244.449219 " fill-opacity="1" fill-rule="nonzero"/></g></g><g clip-path="url(#22f0ca6c09)"><g clip-path="url(#b4eb556dbf)"><path fill="#545454" d="M 399.101562 280.585938 C 402.9375 286.335938 403.894531 289.226562 405.8125 288.898438 C 409.316406 287.625 405.8125 283.792969 401.648438 278.339844 C 377.070312 246.039062 314.152344 184.640625 274.234375 167.6875 C 325.339844 194.238281 378.660156 250.847656 399.101562 280.585938 Z M 399.101562 280.585938 Z M 399.101562 280.585938 " fill-opacity="1" fill-rule="nonzero"/></g></g></svg>